HIERARCHY
ROOT Hips
{
	OFFSET 0.00000 0.00000 0.00000
	CHANNELS 6 Xposition Yposition Zposition Zrotation Yrotation Xrotation 
	JOINT LHipJoint
	{
		OFFSET 0 0 0
		CHANNELS 3 Zrotation Yrotation Xrotation
		JOINT LeftUpLeg
		{
			OFFSET 1.41261 -1.82971 0.84908
			CHANNELS 3 Zrotation Yrotation Xrotation
			JOINT LeftLeg
			{
				OFFSET 2.52554 -6.93888 0.00000
				CHANNELS 3 Zrotation Yrotation Xrotation
				JOINT LeftFoot
				{
					OFFSET 2.56654 -7.05152 0.00000
					CHANNELS 3 Zrotation Yrotation Xrotation
					JOINT LeftToeBase
					{
						OFFSET 0.21698 -0.59616 1.85369
						CHANNELS 3 Zrotation Yrotation Xrotation
						End Site
						{
							OFFSET 0.00000 -0.00000 0.97832
						}
					}
				}
			}
		}
	}
	JOINT RHipJoint
	{
		OFFSET 0 0 0
		CHANNELS 3 Zrotation Yrotation Xrotation
		JOINT RightUpLeg
		{
			OFFSET -1.12808 -1.82971 0.84907
			CHANNELS 3 Zrotation Yrotation Xrotation
			JOINT RightLeg
			{
				OFFSET -2.53425 -6.96280 0.00000
				CHANNELS 3 Zrotation Yrotation Xrotation
				JOINT RightFoot
				{
					OFFSET -2.58413 -7.09983 0.00000
					CHANNELS 3 Zrotation Yrotation Xrotation
					JOINT RightToeBase
					{
						OFFSET -0.26437 -0.72636 1.92241
						CHANNELS 3 Zrotation Yrotation Xrotation
						End Site
						{
							OFFSET -0.00000 -0.00000 1.02667
						}
					}
				}
			}
		}
	}
	JOINT LowerBack
	{
		OFFSET 0 0 0
		CHANNELS 3 Zrotation Yrotation Xrotation
		JOINT Spine
		{
			OFFSET -0.02096 2.02288 -0.14752
			CHANNELS 3 Zrotation Yrotation Xrotation
			JOINT Spine1
			{
				OFFSET 0.03477 2.03136 -0.02358
				CHANNELS 3 Zrotation Yrotation Xrotation
				JOINT Neck
				{
					OFFSET 0 0 0
					CHANNELS 3 Zrotation Yrotation Xrotation
					JOINT Neck1
					{
						OFFSET 0.00174 1.74359 0.19336
						CHANNELS 3 Zrotation Yrotation Xrotation
						JOINT Head
						{
							OFFSET -0.03054 1.76140 -0.17751
							CHANNELS 3 Zrotation Yrotation Xrotation
							End Site
							{
								OFFSET -0.00863 1.77239 -0.08120
							}
						}
					}
				}
				JOINT LeftShoulder
				{
					OFFSET 0 0 0
					CHANNELS 3 Zrotation Yrotation Xrotation
					JOINT LeftArm
					{
						OFFSET 3.68685 1.32687 -0.67367
						CHANNELS 3 Zrotation Yrotation Xrotation
						JOINT LeftForeArm
						{
							OFFSET 4.76468 -0.00000 -0.00000
							CHANNELS 3 Zrotation Yrotation Xrotation
							JOINT LeftHand
							{
								OFFSET 3.52712 -0.00000 -0.00000
								CHANNELS 3 Zrotation Yrotation Xrotation
								JOINT LeftFingerBase
								{
									OFFSET 0 0 0
									CHANNELS 3 Zrotation Yrotation Xrotation
									JOINT LeftHandIndex1
									{
										OFFSET 0.85956 -0.00000 -0.00000
										CHANNELS 3 Zrotation Yrotation Xrotation
										End Site
										{
											OFFSET 0.69300 -0.00000 -0.00000
										}
									}
								}
								JOINT LThumb
								{
									OFFSET 0 0 0
									CHANNELS 3 Zrotation Yrotation Xrotation
									End Site
									{
										OFFSET 0.70358 -0.00000 0.70358
									}
								}
							}
						}
					}
				}
				JOINT RightShoulder
				{
					OFFSET 0 0 0
					CHANNELS 3 Zrotation Yrotation Xrotation
					JOINT RightArm
					{
						OFFSET -3.31304 1.28268 -0.97357
						CHANNELS 3 Zrotation Yrotation Xrotation
						JOINT RightForeArm
						{
							OFFSET -4.90577 -0.00000 -0.00000
							CHANNELS 3 Zrotation Yrotation Xrotation
							JOINT RightHand
							{
								OFFSET -3.42692 -0.00000 0.00000
								CHANNELS 3 Zrotation Yrotation Xrotation
								JOINT RightFingerBase
								{
									OFFSET 0 0 0
									CHANNELS 3 Zrotation Yrotation Xrotation
									JOINT RightHandIndex1
									{
										OFFSET -0.74096 -0.00000 -0.00000
										CHANNELS 3 Zrotation Yrotation Xrotation
										End Site
										{
											OFFSET -0.59738 -0.00000 -0.00000
										}
									}
								}
								JOINT RThumb
								{
									OFFSET 0 0 0
									CHANNELS 3 Zrotation Yrotation Xrotation
									End Site
									{
										OFFSET -0.60650 -0.00000 0.60650
									}
								}
							}
						}
					}
				}
			}
		}
	}
}
MOTION
Frames: 6
Frame Time: 0.105263
0.00 0.00 0.00 0 0 0 0 0 0 -21 0 0 0 0 0 0 0 0 0 0 0 0 0 0 21 0 0 0 0 0 0 0 0 0 0 0 0 0 0 0 0 0 0 0 0 0 0 -16 0 0 21 0 0 11 0 0 0 -8 0 0 0 0 0 0 0 0 0 0 0 0 0 0 0 0 0 0 0 0 8 0 0 0 0 0 0 0 0 0 0 0 0 0 0 0 0 0
0.00 0.00 0.00 -0.6331 -0.2519 7.8963 0.0000 0.0000 0.0000 -16.1463 -3.6585 -17.5526 1.6814 8.1682 23.2262 0.6939 -4.0202 -14.8891 2.2892 -9.4441 -27.1948 0.0000 0.0000 0.0000 15.3401 4.4291 -21.2736 -2.1636 -9.1989 26.4195 -0.2903 -6.6152 -14.7083 -0.6407 -5.1210 14.2539 -1.5315 0.6640 19.1256 1.1461 0.6459 5.5522 1.9451 0.3160 -4.7447 -0.3171 1.1918 -11.7483 -1.6015 2.2229 27.7062 -0.2418 0.7879 10.8699 0.0000 0.0000 0.0000 -93.1011 -5.6906 24.1883 26.8122 -37.9996 -9.3833 -0.0000 0.0000 -1.0958 6.7455 -12.1576 -1.4269 -7.1250 0.0000 -0.0000 -14.1934 17.9484 9.4229 0.0000 0.0000 0.0000 87.9340 13.6921 32.0487 -22.2362 33.2430 -6.7149 0.0000 -0.0000 -2.5462 -3.9861 -38.7984 2.5001 7.1250 -0.0000 -0.0000 39.3579 -64.6133 -20.1268
0.00 0.00 0.00 -0.1196 0.0073 17.3199 0.0000 0.0000 0.0000 -14.3743 -6.9759 -41.9599 4.4817 12.7752 38.5328 0.8205 -9.3915 -16.4727 1.7372 -8.2958 -23.6161 0.0000 0.0000 0.0000 12.4207 6.0355 -45.1252 -4.7731 -13.1237 39.8332 -0.4796 -1.2454 -13.5918 -1.0947 -6.6489 18.6792 -1.5806 1.0100 29.7907 1.4530 0.9595 7.7206 2.2034 0.4651 -7.7360 -0.6003 1.2391 -13.2327 -2.7636 2.6190 25.4382 -0.5452 0.8196 10.3434 0.0000 0.0000 0.0000 -89.1855 -11.1174 37.8395 45.4205 -50.9728 -22.5650 -0.0000 -0.0000 2.6948 12.3719 -14.9602 -3.2409 -7.1250 0.0000 -0.0000 -10.2719 14.8480 7.4189 0.0000 0.0000 0.0000 80.2286 19.6320 40.6349 -42.0851 49.2579 -20.0050 0.0000 0.0000 0.4315 -9.1819 -41.8061 6.1500 7.1250 -0.0000 -0.0000 38.8231 -68.4182 -23.0977
0.00 0.00 0.00 -0.2213 1.0051 21.9261 0.0000 0.0000 0.0000 -12.0269 -8.3421 -58.4187 8.2340 16.2887 53.4013 1.0595 -13.3389 -19.3317 1.4329 -7.5686 -21.4113 0.0000 0.0000 0.0000 11.2956 5.2071 -61.3491 -8.3222 -16.3512 53.7151 -0.6968 2.8422 -15.0606 -0.8532 -5.8910 16.4684 -1.1263 0.7736 35.6774 1.7903 0.7691 8.5837 2.2033 0.3417 -8.3684 -0.6081 1.3675 -14.0811 -3.3736 2.8272 21.8042 -0.7151 0.8953 9.2263 -0.0000 0.0000 0.0000 -84.5422 -11.8550 45.4434 67.9470 -58.0802 -41.0247 -0.0000 -0.0000 8.2714 20.2842 -20.6464 -7.4249 -7.1250 0.0000 -0.0000 -5.2597 8.1694 4.4783 -0.0000 0.0000 0.0000 72.6392 18.8946 46.2431 -66.2054 57.7487 -39.5490 0.0000 0.0000 9.1524 -12.0556 -39.8099 7.7862 7.1250 -0.0000 -0.0000 32.5192 -67.7607 -18.5516
0.00 0.00 0.00 -1.2840 0.8994 23.2504 0.0000 0.0000 0.0000 -8.9337 -7.8546 -69.7061 12.4055 18.5569 67.2686 1.4261 -15.5760 -22.5022 1.1576 -6.8307 -19.2149 0.0000 0.0000 0.0000 10.7597 5.6453 -72.1387 -12.2946 -18.5124 66.9195 -0.9769 5.0476 -17.6729 -0.6628 -5.2066 14.4988 -0.6794 0.9642 39.4260 1.7960 1.1201 9.7128 1.8206 0.4759 -8.4019 -0.5021 1.2825 -14.3559 -3.3388 2.5720 18.9348 -0.7426 0.8341 8.2928 -0.0000 0.0000 0.0000 -81.5839 -10.8746 49.5560 90.6516 -59.9984 -60.5643 -0.0000 -0.0000 11.9619 22.7579 -22.1551 -8.9896 -7.1250 0.0000 -0.0000 -3.8237 6.2003 3.3961 -0.0000 0.0000 0.0000 68.5909 17.1877 48.0122 -86.6371 59.9572 -57.0881 0.0000 0.0000 17.4529 -17.5902 -34.2747 10.1229 7.1250 -0.0000 -0.0000 19.4532 -64.5332 -9.3670
0.00 0.00 0.00 -1.5141 0.7707 22.8960 0.0000 0.0000 0.0000 -6.8894 -7.7591 -76.7712 15.9468 19.6015 78.0732 1.7720 -16.4736 -24.9062 1.0392 -6.4835 -18.1939 0.0000 0.0000 0.0000 9.4515 5.6798 -79.1170 -15.7275 -19.5566 77.4187 -1.2640 5.8505 -20.1265 -0.5966 -4.9449 13.7515 -0.8240 1.0925 42.0453 1.7317 1.1843 10.2830 1.7873 0.4921 -8.5739 -0.5612 1.3102 -14.1605 -3.5082 2.6036 17.5932 -0.7842 0.8534 7.8130 -0.0000 0.0000 0.0000 -80.9070 -8.4305 51.0004 108.7174 -58.6339 -76.1354 -0.0000 -0.0000 16.4207 23.2539 -24.4224 -10.0746 -7.1250 0.0000 -0.0000 -3.7589 3.7281 3.5142 -0.0000 0.0000 0.0000 67.3753 14.8598 47.0926 -103.8767 59.2597 -71.9877 0.0000 0.0000 22.8740 -19.3182 -31.4160 10.3551 7.1250 -0.0000 -0.0000 15.0169 -62.2740 -6.3835
